<svg fill="none" stroke-linecap="square" stroke-miterlimit="10" version="1.1" viewBox="0 0 960 540" xmlns="http://www.w3.org/2000/svg">
 <g clip-path="url(#p.0)">
  <g fill-rule="evenodd">
   <path d="m137.87 149.63c0-9.5267 7.723-17.25 17.25-17.25h665.25c4.5749 0 8.9624 1.8174 12.197 5.0523 3.235 3.2349 5.0524 7.6225 5.0524 12.197v68.997c0 9.5267-7.723 17.25-17.25 17.25h-665.25c-9.5267 0-17.25-7.7229-17.25-17.25z" fill="#86c6dc" fill-opacity=".7462"/>
   <path d="m137.87 149.63c0-9.5267 7.723-17.25 17.25-17.25h665.25c4.5749 0 8.9624 1.8174 12.197 5.0523 3.235 3.2349 5.0524 7.6225 5.0524 12.197v68.997c0 9.5267-7.723 17.25-17.25 17.25h-665.25c-9.5267 0-17.25-7.7229-17.25-17.25z" stroke="#595959" stroke-linecap="butt" stroke-linejoin="round"/>
   <path d="m32.724 132.38h894.55v93.386h-894.55z" fill="#000" fill-opacity="0"/>
  </g>
  <path d="m254.77 204.13h-8.5312l-5.1094-26.672-9.9844 27.344h-3.1094l-10.062-27.344-5.3438 26.672h-8.4688l9.9844-49.562h4.6406l10.766 33.422 10.453-33.422h4.6406l10.125 49.562zm22.676 5.8281q-1.3438 3.6094-5.7188 6-4.3594 2.3906-10.453 2.3906v-7.4844q9.7812 0 9.7812-4.9375 0-3.2188-2.7031-9.9219l-11.375-28.125h8.7969l9.8438 25.016 8.9375-25.016h8.7656l-15.875 42.078zm40.351-24.75q3.125 0.98438 4.9844 3.2344t1.8594 4.8906q0 5.6562-4.1094 8.625-4.1094 2.9531-11.266 2.9531-8.3281 0-13.875-4.0312l4.1719-6.6719q4.3281 3.6875 10.25 3.6875 6.0938 0 6.0938-4.5 0-4.875-7.2031-4.875-2.7188 0-4.8438 0.20312v-6.625q1.25 0.0625 5.4844 0.0625 5.75 0 5.75-4.0312 0-1.8594-1.3906-2.9688-1.3906-1.125-3.9531-1.125-4.8125 0-9.4531 2.7812l-3.0469-6.6719q6.5781-3.0469 13.109-3.0469 5.9844 0 9.625 2.9062t3.6406 7.2812q0 5.8594-5.8281 7.9219zm46.714 3.3906h-25.922q0.20312 4.3281 2.9844 6.75 2.7969 2.4219 7.4062 2.4219 5.7188 0 8.7969-3.0781l3.25 6.5312q-4.5625 3.5781-13.297 3.5781-8.2656 0-13.109-4.7656-4.8281-4.7812-4.8281-13.641 0-8.6406 5.3125-13.938t12.688-5.2969q7.7969 0 12.594 4.6875 4.8125 4.6875 4.8125 12.031 0 1.7344-0.6875 4.7188zm-25.578-6.375h17.734q-0.84375-7.9844-8.7969-7.9844-7.1562 0-8.9375 7.9844zm65.658 21.906h-8.4531v-21.906l-21.766 22.75h-2.3125v-37.094h8.4688v21.891l21.766-22.734h2.2969v37.094zm-2.9062-53.797q-0.9375 5.0469-4.3594 7.7344-3.4219 2.6719-8.2656 2.6719-4.9688 0-8.2656-2.6406-3.2812-2.6406-4.2969-7.7656l7.0781-1.4531q0.78125 6.0938 5.6875 6.0938 5.0469 0 5.5469-6.0156l6.875 1.375zm44.015 53.797h-8.4688v-15.531h-15.031v15.531h-8.4688v-36.25h8.4688v13.703h15.031v-13.703h8.4688v36.25zm15.94-50.344q1.9688 0 3.4062 1.4062t1.4375 3.5469q0 2.0625-1.4219 3.4844t-3.4219 1.4219q-2.0625 0-3.5-1.4688-1.4375-1.4844-1.4375-3.4375 0-1.9688 1.4219-3.4531 1.4219-1.5 3.5156-1.5zm-4.0312 50.344v-29.312h-4.6406v-6.9375h13.172v36.25h-8.5312zm64.145-29.109h-16.656v29.109h-8.5312v-36.25h25.188v7.1406zm4.6486 10.859q0-8.2188 4.75-13.469t12.641-5.25q8.2657 0 12.828 5.0781 4.5781 5.0781 4.5781 13.641 0 8.9062-4.7656 13.922-4.75 5-12.641 5-8.1875 0-12.797-5.125-4.5938-5.125-4.5938-13.797zm8.7969 0q0 12.016 8.5938 12.016 3.8907 0 6.2501-3.0625t2.3594-8.9531q0-11.781-8.6094-11.781-3.9219 0-6.2656 3.0938-2.3281 3.0781-2.3281 8.6875zm61.474-15.094-3.625 6.2969q-3.0469-2.8438-7.9531-2.8438-4.7656 0-7.5781 3.1562-2.8125 3.1406-2.8125 8.9219 0 11.453 10.797 11.453 4.8125 0 8.3281-3.1562l3.1094 6.6719q-3.8594 2.375-6.6094 2.9375-2.7344 0.57812-6.3438 0.57812-8.2656 0-13.172-4.8281-4.9062-4.8438-4.9062-13.656 0-8.625 5.25-13.891 5.2656-5.2656 14.484-5.2656 6.3906 0 11.031 3.625zm23.797 4.2344v29.109h-8.5312v-29.109h-10.391v-7.1406h29.312v7.1406h-10.391zm49.688 29.109h-8.4531v-21.906l-21.766 22.75h-2.3125v-37.094h8.4688v21.891l21.766-22.734h2.2969v37.094zm41.109 0h-8.4688v-15.531h-15.031v15.531h-8.4688v-36.25h8.4688v13.703h15.031v-13.703h8.4688v36.25zm41.658 0h-8.4531v-21.906l-21.766 22.75h-2.3125v-37.094h8.4688v21.891l21.766-22.734h2.2969v37.094z" fill="#f00" stroke="#fff" stroke-linejoin="round" stroke-miterlimit="10" stroke-width="10.1" style="paint-order:markers stroke fill"/>
  <path d="m60.249 321.94c0-17.088 13.852-30.94 30.94-30.94h781.87c8.2059 0 16.076 3.2598 21.878 9.0622 5.8024 5.8024 9.0622 13.672 9.0622 21.878v123.76c0 17.088-13.852 30.94-30.94 30.94h-781.87c-17.088 0-30.94-13.852-30.94-30.94z" fill="#3588dc" fill-opacity=".7462" fill-rule="evenodd"/>
  <path d="m60.249 321.94c0-17.088 13.852-30.94 30.94-30.94h781.87c8.2059 0 16.076 3.2598 21.878 9.0622 5.8024 5.8024 9.0622 13.672 9.0622 21.878v123.76c0 17.088-13.852 30.94-30.94 30.94h-781.87c-17.088 0-30.94-13.852-30.94-30.94z" fill-rule="evenodd" stroke="#595959" stroke-linecap="butt" stroke-linejoin="round"/>
  <g fill="#ff0" stroke="#595959" stroke-miterlimit="10">
   <path d="m131.29 349.18h-3.9844v-6.7969h-23.266v-19.516h4.4219v15.812h5.6719v-15.812h4.4062v15.812h5.6719v-15.812h4.4062v15.812h2.6719v10.5zm2.2535-16.625q0-4.4219 2.5469-7.25 2.5625-2.8281 6.8125-2.8281 4.4531 0 6.9062 2.7344 2.4688 2.7344 2.4688 7.3438 0 4.7969-2.5625 7.5-2.5625 2.6875-6.8125 2.6875-4.4062 0-6.8906-2.75-2.4688-2.7656-2.4688-7.4375zm4.7344 0q0 6.4688 4.625 6.4688 2.0938 0 3.3594-1.6406 1.2812-1.6562 1.2812-4.8281 0-6.3438-4.6406-6.3438-2.1094 0-3.375 1.6719-1.25 1.6562-1.25 4.6719zm22.27 9.3438v8.1406h-4.5625v-27.172h4.5625v1.3125q1.7344-1.7031 4.2188-1.7031 9.3281 0 9.3281 10.312 0 4.75-2.5781 7.3594-2.5625 2.5938-7.0469 2.5938-2.0781 0-3.9219-0.84375zm0-14.266v10.266q1.2344 1.0156 2.9219 1.0156 3.0781 0 4.4844-1.5 1.4062-1.5156 1.4062-4.7812 0-3.2969-1.3281-4.7812t-4.5625-1.4844q-1.6406 0-2.9219 1.2656zm20.945-12.359q1.0625 0 1.8281 0.76562 0.78125 0.75 0.78125 1.9062 0 1.1094-0.76562 1.875t-1.8438 0.76562q-1.1094 0-1.8906-0.79688-0.76562-0.79688-0.76562-1.8438 0-1.0625 0.76562-1.8594 0.76562-0.8125 1.8906-0.8125zm-2.1719 27.109v-15.781h-2.5v-3.7344h7.0938v19.516h-4.5938zm25.978 0h-4.5625v-7.3438q-2.8281 0.65625-4.9219 0.65625-3.5156 0-5.375-1.8438-1.8594-1.8594-1.8594-5.3281v-5.6562h4.6094v5.2656q0 3.7656 3.6719 3.7656 1.8438 0 3.875-0.48438v-8.5469h4.5625v19.516zm22.13 0h-4.5625v-8.3594h-8.0938v8.3594h-4.5625v-19.516h4.5625v7.375h8.0938v-7.375h4.5625v19.516zm22.424-8.3594h-13.953q0.10938 2.3281 1.6094 3.6406 1.5 1.2969 3.9844 1.2969 3.0781 0 4.7344-1.6562l1.75 3.5156q-2.4531 1.9219-7.1562 1.9219-4.4531 0-7.0625-2.5625-2.5938-2.5781-2.5938-7.3438 0-4.6562 2.8594-7.5 2.8594-2.8594 6.8281-2.8594 4.2031 0 6.7812 2.5312 2.5938 2.5156 2.5938 6.4688 0 0.9375-0.375 2.5469zm-13.766-3.4375h9.5469q-0.45312-4.2969-4.7344-4.2969-3.8594 0-4.8125 4.2969zm43.717-7.3281q1.5156-0.78125 3.0938-0.78125 3.9062 0 5.9844 2.7031 2.0781 2.6875 2.0781 7.4219 0 4.875-2.1875 7.5156-2.1719 2.625-5.5469 2.625-1.8281 0-3.4219-0.65625v7.9531h-4.375v-8.0156q-1.7344 0.71875-3.5312 0.71875-3.5781 0-5.6406-2.625-2.0469-2.6406-2.0469-7.3594 0-4.8125 2.2031-7.5469t5.8438-2.7344q1.625 0 3.1719 0.75v-7.6406l4.375-1.0938v8.7656zm-0.03125 15.5q1.2969 0.42188 2.3906 0.42188 4.4062 0 4.4062-6.7656 0-3.1406-1.0781-4.7812t-3.1094-1.6406q-1.1875 0-2.6094 0.5v12.266zm-4.2969-0.03125v-12.203q-1.375-0.53125-2.6562-0.53125-4.2031 0-4.2031 6.4219 0 6.7656 4.3906 6.7656 1.1719 0 2.4688-0.45312zm18.261-6.1719q0-4.4219 2.5469-7.25 2.5625-2.8281 6.8125-2.8281 4.4531 0 6.9062 2.7344 2.4688 2.7344 2.4688 7.3438 0 4.7969-2.5625 7.5-2.5625 2.6875-6.8125 2.6875-4.4062 0-6.8906-2.75-2.4688-2.7656-2.4688-7.4375zm4.7344 0q0 6.4688 4.625 6.4688 2.0938 0 3.3594-1.6406 1.2812-1.6562 1.2812-4.8281 0-6.3438-4.6406-6.3438-2.1094 0-3.375 1.6719-1.25 1.6562-1.25 4.6719zm35.161 9.8281h-4.4531v-15.938h-4.8125q-0.14062 4.0938-0.92188 7.6094-0.76562 3.5156-2.125 5.4219-1.3438 1.9062-2.8906 2.5156-1.5312 0.60938-3.8906 0.60938v-4.0312q1.8281 0 3.0312-1.25t2.0312-4.8906q0.84375-3.6562 0.84375-8.3438v-1.2188h13.188v19.516zm9.4422-12.547q1.7812-0.14062 3.9844-0.14062 3.6719 0 5.75 1.7031 2.0938 1.6875 2.0938 4.7812 0 2.8438-1.875 4.5312-1.875 1.6719-6.0781 1.6719h-8.4062v-19.516h4.5312v6.9688zm0 8.9531q1.8125 0.078125 3.5 0.078125 3.7344 0 3.7344-2.8594 0-1.1875-0.875-2-0.85938-0.8125-2.8125-0.8125-1.0156 0-3.5469 0.10938v5.4844zm32.206 3.7031q-0.96875 0.10938-2.1094 0.10938-3.4375 0-3.9688-3.5-0.73438-5.125-5.8594-5.125h-0.10938v8.4062h-4.5312v-19.516h4.5312v7.3438h0.21875q4.9531 0 5.5938-4.2188 0.51562-3.3438 3.8438-3.3438 0.51562 0 2.0625 0.10938v3.6875q-0.46875-0.078125-0.85938-0.078125-0.73438 0-1 1.125-0.875 3.7188-4.9844 4.5938 4.4219 1.1875 5.3125 5.6719 0.21875 1.0781 0.96875 1.0781 0.67188 0 0.89062-0.078125v3.7344zm21.252-0.10938h-4.4531v-15.938h-4.8125q-0.14062 4.0938-0.92188 7.6094-0.76562 3.5156-2.125 5.4219-1.3438 1.9062-2.8906 2.5156-1.5312 0.60938-3.8906 0.60938v-4.0312q1.8281 0 3.0312-1.25t2.0312-4.8906q0.84375-3.6562 0.84375-8.3438v-1.2188h13.188v19.516zm3.7391-9.8281q0-4.4219 2.5469-7.25 2.5625-2.8281 6.8125-2.8281 4.4531 0 6.9062 2.7344 2.4688 2.7344 2.4688 7.3438 0 4.7969-2.5625 7.5-2.5625 2.6875-6.8125 2.6875-4.4062 0-6.8906-2.75-2.4688-2.7656-2.4688-7.4375zm4.7344 0q0 6.4688 4.625 6.4688 2.0938 0 3.3594-1.6406 1.2812-1.6562 1.2812-4.8281 0-6.3438-4.6406-6.3438-2.1094 0-3.375 1.6719-1.25 1.6562-1.25 4.6719zm22.27 9.3438v8.1406h-4.5625v-27.172h4.5625v1.3125q1.7344-1.7031 4.2188-1.7031 9.3281 0 9.3281 10.312 0 4.75-2.5781 7.3594-2.5625 2.5938-7.0469 2.5938-2.0781 0-3.9219-0.84375zm0-14.266v10.266q1.2344 1.0156 2.9219 1.0156 3.0781 0 4.4844-1.5 1.4062-1.5156 1.4062-4.7812 0-3.2969-1.3281-4.7812t-4.5625-1.4844q-1.6406 0-2.9219 1.2656zm34.492 14.75h-4.5625v-8.3594h-8.0938v8.3594h-4.5625v-19.516h4.5625v7.375h8.0938v-7.375h4.5625v19.516zm3.7365-9.8281q0-4.4219 2.5469-7.25 2.5625-2.8281 6.8125-2.8281 4.4531 0 6.9062 2.7344 2.4688 2.7344 2.4688 7.3438 0 4.7969-2.5625 7.5-2.5625 2.6875-6.8125 2.6875-4.4062 0-6.8906-2.75-2.4688-2.7656-2.4688-7.4375zm4.7344 0q0 6.4688 4.625 6.4688 2.0938 0 3.3594-1.6406 1.2812-1.6562 1.2812-4.8281 0-6.3438-4.6406-6.3438-2.1094 0-3.375 1.6719-1.25 1.6562-1.25 4.6719zm17.239 1.1562v-4.2812h9.6406v4.2812h-9.6406zm31.691 0.3125h-13.953q0.10938 2.3281 1.6094 3.6406 1.5 1.2969 3.9844 1.2969 3.0782 0 4.7344-1.6562l1.75 3.5156q-2.4531 1.9219-7.1563 1.9219-4.4531 0-7.0625-2.5625-2.5938-2.5781-2.5938-7.3438 0-4.6562 2.8594-7.5 2.8594-2.8594 6.8281-2.8594 4.2032 0 6.7813 2.5312 2.5938 2.5156 2.5938 6.4688 0 0.9375-0.375 2.5469zm-13.766-3.4375h9.5469q-0.45312-4.2969-4.7344-4.2969-3.8594 0-4.8125 4.2969zm26.768-3.875v15.672h-4.5938v-15.672h-5.5938v-3.8438h15.781v3.8438h-5.5938zm26.453 15.672h-4.5625v-8.3594h-8.0938v8.3594h-4.5626v-19.516h4.5626v7.375h8.0938v-7.375h4.5625v19.516zm3.7365-9.8281q0-4.4219 2.5469-7.25 2.5625-2.8281 6.8125-2.8281 4.4531 0 6.9062 2.7344 2.4688 2.7344 2.4688 7.3438 0 4.7969-2.5625 7.5-2.5625 2.6875-6.8125 2.6875-4.4062 0-6.8906-2.75-2.4688-2.7656-2.4688-7.4375zm4.7344 0q0 6.4688 4.625 6.4688 2.0938 0 3.3594-1.6406 1.2812-1.6562 1.2812-4.8281 0-6.3438-4.6406-6.3438-2.1094 0-3.375 1.6719-1.25 1.6562-1.25 4.6719zm31.271-5.8438h-8.9688v15.672h-4.5938v-19.516h13.562v3.8438zm8.2424 15.188v8.1406h-4.5625v-27.172h4.5625v1.3125q1.7344-1.7031 4.2188-1.7031 9.3281 0 9.3281 10.312 0 4.75-2.5781 7.3594-2.5625 2.5938-7.0469 2.5938-2.0781 0-3.9219-0.84375zm0-14.266v10.266q1.2344 1.0156 2.9219 1.0156 3.0781 0 4.4844-1.5 1.4062-1.5156 1.4062-4.7812 0-3.2969-1.3281-4.7812t-4.5625-1.4844q-1.6406 0-2.9219 1.2656zm28.179 12.812q-0.625 1.0156-2.2344 1.6562-1.5938 0.64062-3.1406 0.64062-3.2031 0-4.9844-1.5781-1.7656-1.5938-1.7656-4.4531 0-3.2188 2.4375-5.2344 2.4531-2.0156 7.2969-2.0156 0.78125 0 1.9219 0.3125 0-3.4844-4.3438-3.4844-2.5469 0-4.3438 0.85938l-0.95312-3.5q2.3125-1.1719 5.5938-1.1719 4.5156 0 6.5625 2.0938 2.0625 2.0781 2.0625 7.6562v4.1719q0 3.9062 1.5625 4.9062-0.53125 0.95312-1.1875 1.1875-0.65625 0.25-1.6406 0.25-0.96875 0-1.75-0.6875-0.78125-0.70312-1.0938-1.6094zm-0.4375-7.25q-1.1875-0.21875-1.7656-0.21875-5.375 0-5.375 3.5 0 2.6562 3.0156 2.6562 4.125 0 4.125-4.0938v-1.8438zm24.112-9.9375q1.5156-0.78125 3.0938-0.78125 3.9062 0 5.9844 2.7031 2.0781 2.6875 2.0781 7.4219 0 4.875-2.1875 7.5156-2.1719 2.625-5.5469 2.625-1.8281 0-3.4219-0.65625v7.9531h-4.375v-8.0156q-1.7344 0.71875-3.5312 0.71875-3.5781 0-5.6406-2.625-2.0469-2.6406-2.0469-7.3594 0-4.8125 2.2031-7.5469t5.8438-2.7344q1.625 0 3.1719 0.75v-7.6406l4.375-1.0938v8.7656zm-0.03125 15.5q1.2969 0.42188 2.3906 0.42188 4.4062 0 4.4062-6.7656 0-3.1406-1.0781-4.7812t-3.1094-1.6406q-1.1875 0-2.6094 0.5v12.266zm-4.2969-0.03125v-12.203q-1.375-0.53125-2.6562-0.53125-4.2031 0-4.2031 6.4219 0 6.7656 4.3906 6.7656 1.1719 0 2.4688-0.45312zm23.105-23.453q1.0625 0 1.8281 0.76562 0.78125 0.75 0.78125 1.9062 0 1.1094-0.76562 1.875t-1.8438 0.76562q-1.1094 0-1.8906-0.79688-0.76562-0.79688-0.76562-1.8438 0-1.0625 0.76562-1.8594 0.76562-0.8125 1.8906-0.8125zm-2.1719 27.109v-15.781h-2.5v-3.7344h7.0938v19.516h-4.5938zm25.978 0h-4.5625v-7.3438q-2.8281 0.65625-4.9219 0.65625-3.5156 0-5.375-1.8438-1.8594-1.8594-1.8594-5.3281v-5.6562h4.6094v5.2656q0 3.7656 3.6719 3.7656 1.8438 0 3.875-0.48438v-8.5469h4.5625v19.516zm22.13 0h-4.5625v-8.3594h-8.0938v8.3594h-4.5625v-19.516h4.5625v7.375h8.0938v-7.375h4.5625v19.516zm22.424-8.3594h-13.953q0.10938 2.3281 1.6094 3.6406 1.5 1.2969 3.9844 1.2969 3.0781 0 4.7344-1.6562l1.75 3.5156q-2.4531 1.9219-7.1562 1.9219-4.4531 0-7.0625-2.5625-2.5938-2.5781-2.5938-7.3438 0-4.6562 2.8594-7.5 2.8594-2.8594 6.8281-2.8594 4.2031 0 6.7812 2.5312 2.5938 2.5156 2.5938 6.4688 0 0.9375-0.375 2.5469zm-13.766-3.4375h9.5469q-0.45312-4.2969-4.7344-4.2969-3.8594 0-4.8125 4.2969zm44.467-6.1562-1.9531 3.3906q-1.6406-1.5312-4.2812-1.5312-2.5625 0-4.0781 1.7031-1.5156 1.6875-1.5156 4.7969 0 6.1719 5.8125 6.1719 2.5938 0 4.4844-1.7031l1.6719 3.5938q-2.0781 1.2812-3.5625 1.5781-1.4688 0.3125-3.4062 0.3125-4.4531 0-7.0938-2.5938-2.6406-2.6094-2.6406-7.3594 0-4.6406 2.8281-7.4688 2.8281-2.8438 7.7969-2.8438 3.4375 0 5.9375 1.9531zm16.5 7.5469q3.7969 1.3594 3.7969 4.9219 0 2.5156-1.9375 4-1.9219 1.4844-5.75 1.4844h-8.7344v-19.484q5.5-0.25 8.5156-0.25 3.375 0 5.2188 1.4688 1.8438 1.4531 1.8438 3.9062 0 1.2344-0.78125 2.3281-0.76562 1.0781-2.1719 1.625zm-8.2031-1.5q0.70312 0.046875 3.8125 0.046875 2.9844 0 2.9844-2.2812 0-0.98438-0.75-1.5781-0.73438-0.59375-2.0156-0.59375-2.4062 0-4.0312 0.14062v4.2656zm0 8.3594q2.3594 0.078125 3.9844 0.078125 3.5625 0 3.5625-2.5781 0-1.2969-1.0312-1.9375-1.0156-0.64062-2.5312-0.64062l-3.9844 0.046875v5.0312zm31.919 3.5469h-4.4844v-7.4062h-1.2031q-5.125 0-5.75 4.4219-0.4375 3.2031-3.8438 3.2031-0.96875 0-1.8594-0.10938v-3.7344q0.21875 0.078125 0.78125 0.078125 0.82812 0 1.0469-1.0781 0.32812-1.5781 1.4219-2.7031t2.7031-1.5469q-4.7344-0.875-4.7344-5.0938 0-2.4688 1.8438-4.1094 1.8438-1.6562 6.0312-1.6562 2.4688 0 8.0469 0.28125v19.453zm-4.4844-10.797v-5.375q-1.4688-0.14062-3.5625-0.14062-1.6719 0-2.4688 0.73438-0.78125 0.73438-0.78125 1.9062 0 1.2344 1.0469 2.0312 1.0625 0.79688 2.875 0.8125l2.8906 0.03125zm18.328-4.875v15.672h-4.5938v-15.672h-5.5938v-3.8438h15.781v3.8438h-5.5938zm8.0625 5.8438q0-4.4219 2.5469-7.25 2.5625-2.8281 6.8125-2.8281 4.4531 0 6.9062 2.7344 2.4688 2.7344 2.4688 7.3438 0 4.7969-2.5625 7.5-2.5625 2.6875-6.8125 2.6875-4.4062 0-6.8906-2.75-2.4688-2.7656-2.4688-7.4375zm4.7344 0q0 6.4688 4.625 6.4688 2.0938 0 3.3594-1.6406 1.2812-1.6562 1.2812-4.8281 0-6.3438-4.6406-6.3438-2.1094 0-3.375 1.6719-1.25 1.6562-1.25 4.6719z" stroke-width="3.9" style="paint-order:markers stroke fill"/>
   <path d="m329.25 376.98q3.7969 1.3594 3.7969 4.9219 0 2.5156-1.9375 4-1.9219 1.4844-5.75 1.4844h-8.7344v-19.484q5.5-0.25 8.5156-0.25 3.375 0 5.2188 1.4688 1.8438 1.4531 1.8438 3.9062 0 1.2344-0.78125 2.3281-0.76562 1.0781-2.1719 1.625zm-8.2031-1.5q0.70313 0.0469 3.8125 0.0469 2.9844 0 2.9844-2.2812 0-0.98437-0.75-1.5781-0.73438-0.59375-2.0156-0.59375-2.4062 0-4.0312 0.14062zm0 8.3594q2.3594 0.0781 3.9844 0.0781 3.5625 0 3.5625-2.5781 0-1.2969-1.0312-1.9375-1.0156-0.64062-2.5312-0.64062l-3.9844 0.0469zm27.54 3.5469v-1.3906l8.4531-12.438q2.5312-3.75 2.5312-6.2969 0-3.0156-3.625-3.0156-2.7656 0-4.4688 2.9219l-3.1875-2.5156q0.95312-1.9062 2.9844-3.1719 2.0312-1.2656 4.4844-1.2656 4.1094 0 6.4219 1.875 2.3125 1.8594 2.3125 5.1719 0 3.0469-2.9688 7.5781l-5.4688 8.3438h10.031v4.2031zm22.044-2.0156 1.8906-3.9062q2.8906 2.2656 4.9688 2.2656 4.5938 0 4.5938-5.6562 0-2.7188-1.0469-3.9688-1.0312-1.25-3.4688-1.25-2.2031 0-4.3125 2.1719l-1.875-1.2188v-13.234h14.391v4.0312h-9.8281v4.7656q1.2031-0.54687 2.875-0.54687 3.9375 0 6.0625 2.2812t2.125 6.4531q0 10.188-9.5 10.188-3.9375 0-6.875-2.375zm20.856-6.6562v-4.2812h9.6406v4.2812zm31.691 8.6719h-4.5469v-11.797l-11.719 12.25h-1.25v-19.969h4.5625v11.781l11.719-12.234h1.2344zm-1.5625-28.969q-0.5 2.7188-2.3438 4.1719-1.8438 1.4375-4.4531 1.4375-2.6719 0-4.4531-1.4219-1.7656-1.4219-2.3125-4.1875l3.8125-0.78125q0.42188 3.2812 3.0625 3.2812 2.7188 0 2.9844-3.2344zm22.292 28.484v8.1406h-4.5625v-27.172h4.5625v1.3125q1.7344-1.7031 4.2188-1.7031 9.3281 0 9.3281 10.312 0 4.75-2.5781 7.3594-2.5625 2.5938-7.0469 2.5938-2.0781 0-3.9219-0.84375zm0-14.266v10.266q1.2344 1.0156 2.9219 1.0156 3.0781 0 4.4844-1.5 1.4062-1.5156 1.4062-4.7812 0-3.2969-1.3281-4.7812-1.3281-1.4844-4.5625-1.4844-1.6406 0-2.9219 1.2656zm28.179 12.812q-0.625 1.0156-2.2344 1.6562-1.5938 0.64062-3.1406 0.64062-3.2031 0-4.9844-1.5781-1.7656-1.5938-1.7656-4.4531 0-3.2188 2.4375-5.2344 2.4531-2.0156 7.2969-2.0156 0.78125 0 1.9219 0.3125 0-3.4844-4.3438-3.4844-2.5469 0-4.3438 0.85937l-0.95313-3.5q2.3125-1.1719 5.5938-1.1719 4.5156 0 6.5625 2.0938 2.0625 2.0781 2.0625 7.6562v4.1719q0 3.9062 1.5625 4.9062-0.53125 0.95313-1.1875 1.1875-0.65625 0.25-1.6406 0.25-0.96875 0-1.75-0.6875-0.78125-0.70312-1.0938-1.6094zm-0.4375-7.25q-1.1875-0.21875-1.7656-0.21875-5.375 0-5.375 3.5 0 2.6562 3.0156 2.6562 4.125 0 4.125-4.0938zm19.862-1q1.6875 0.53125 2.6875 1.75 1 1.2031 1 2.625 0 3.0469-2.2188 4.6406-2.2031 1.5938-6.0625 1.5938-4.4844 0-7.4688-2.1719l2.25-3.5938q2.3281 1.9844 5.5156 1.9844 3.2812 0 3.2812-2.4219 0-2.625-3.875-2.625-1.4688 0-2.6094 0.10937v-3.5625q0.67188 0.0312 2.9531 0.0312 3.0938 0 3.0938-2.1719 0-1-0.75-1.5938-0.75-0.60938-2.125-0.60938-2.5938 0-5.0938 1.5l-1.6406-3.5938q3.5469-1.6406 7.0625-1.6406 3.2188 0 5.1719 1.5625 1.9688 1.5625 1.9688 3.9219 0 3.1562-3.1406 4.2656zm35.772 10.188h-4.5625v-15.672h-7.7656v15.672h-4.5625v-19.516h16.891zm3.7366-9.8281q0-4.4219 2.5469-7.25 2.5625-2.8281 6.8125-2.8281 4.4531 0 6.9062 2.7344 2.4688 2.7344 2.4688 7.3438 0 4.7969-2.5625 7.5-2.5625 2.6875-6.8125 2.6875-4.4062 0-6.8906-2.75-2.4688-2.7656-2.4688-7.4375zm4.7344 0q0 6.4688 4.625 6.4688 2.0938 0 3.3594-1.6406 1.2812-1.6562 1.2812-4.8281 0-6.3438-4.6406-6.3438-2.1094 0-3.375 1.6719-1.25 1.6562-1.25 4.6719zm33.099-8.125-1.9531 3.3906q-1.6406-1.5312-4.2812-1.5312-2.5625 0-4.0781 1.7031-1.5156 1.6875-1.5156 4.7969 0 6.1719 5.8125 6.1719 2.5938 0 4.4844-1.7031l1.6719 3.5938q-2.0781 1.2812-3.5625 1.5781-1.4688 0.3125-3.4062 0.3125-4.4531 0-7.0938-2.5938-2.6406-2.6094-2.6406-7.3594 0-4.6406 2.8281-7.4688 2.8281-2.8438 7.7969-2.8438 3.4375 0 5.9375 1.9531zm20.766 17.953h-4.5625v-15.672h-7.7656v15.672h-4.5625v-19.516h16.891zm8.5803-27.109q1.0625 0 1.8281 0.76563 0.78125 0.75 0.78125 1.9062 0 1.1094-0.76563 1.875-0.76562 0.76562-1.8438 0.76562-1.1094 0-1.8906-0.79687-0.76563-0.79688-0.76563-1.8438 0-1.0625 0.76563-1.8594 0.76562-0.8125 1.8906-0.8125zm-2.1719 27.109v-15.781h-2.5v-3.7344h7.0938v19.516zm27.181 0h-4.4531v-15.938h-4.8125q-0.14063 4.0938-0.92188 7.6094-0.76562 3.5156-2.125 5.4219-1.3438 1.9062-2.8906 2.5156-1.5312 0.60938-3.8906 0.60938v-4.0312q1.8281 0 3.0312-1.25 1.2031-1.25 2.0312-4.8906 0.84375-3.6562 0.84375-8.3438v-1.2188h13.188zm9.4422-12.547q1.7812-0.14062 3.9844-0.14062 3.6719 0 5.75 1.7031 2.0938 1.6875 2.0938 4.7812 0 2.8438-1.875 4.5312-1.875 1.6719-6.0781 1.6719h-8.4062v-19.516h4.5312zm0 8.9531q1.8125 0.0781 3.5 0.0781 3.7344 0 3.7344-2.8594 0-1.1875-0.875-2-0.85938-0.8125-2.8125-0.8125-1.0156 0-3.5469 0.10937z" stroke-width="3.9" style="paint-order:markers stroke fill"/>
   <path d="m403.58 435.53q-0.71875 1.9375-3.0781 3.2188-2.3438 1.2969-5.625 1.2969v-4.0312q5.2656 0 5.2656-2.6562 0-1.7344-1.4531-5.3438l-6.125-15.141h4.7344l5.2969 13.469 4.8125-13.469h4.7188zm27.597-12.969v9.8281h-4.7344v-26.688q5.2344-0.20312 5.5625-0.20312 6.2344 0 9.1875 1.9375 2.9688 1.9375 2.9688 6.0781 0 9.1719-10.828 9.1719-0.82813 0-2.1562-0.125zm0-12.75v8.5469q1.2188 0.10938 1.9062 0.10938 3.2344 0 4.7344-1.0625 1.5-1.0781 1.5-3.5312 0-4.1406-6.7031-4.1406-1 0-1.4375 0.0781zm20.638-4.5312q1.0625 0 1.8281 0.76562 0.78125 0.75 0.78125 1.9062 0 1.1094-0.76563 1.875-0.76562 0.76563-1.8438 0.76563-1.1094 0-1.8906-0.79688-0.76563-0.79687-0.76563-1.8438 0-1.0625 0.76563-1.8594 0.76562-0.8125 1.8906-0.8125zm-2.1719 27.109v-15.781h-2.5v-3.7344h7.0938v19.516zm22.353-10.406q3.7969 1.3594 3.7969 4.9219 0 2.5156-1.9375 4-1.9219 1.4844-5.75 1.4844h-8.7344v-19.484q5.5-0.25 8.5156-0.25 3.375 0 5.2188 1.4688 1.8438 1.4531 1.8438 3.9062 0 1.2344-0.78125 2.3281-0.76562 1.0781-2.1719 1.625zm-8.2031-1.5q0.70313 0.0469 3.8125 0.0469 2.9844 0 2.9844-2.2812 0-0.98438-0.75-1.5781-0.73438-0.59375-2.0156-0.59375-2.4062 0-4.0312 0.14063zm0 8.3594q2.3594 0.0781 3.9844 0.0781 3.5625 0 3.5625-2.5781 0-1.2969-1.0312-1.9375-1.0156-0.64063-2.5312-0.64063l-3.9844 0.0469zm33.138 3.5469h-4.5625v-8.3594h-8.0938v8.3594h-4.5625v-19.516h4.5625v7.375h8.0938v-7.375h4.5625zm3.7365-9.8281q0-4.4219 2.5469-7.25 2.5625-2.8281 6.8125-2.8281 4.4532 0 6.9063 2.7344 2.4688 2.7344 2.4688 7.3438 0 4.7969-2.5625 7.5-2.5625 2.6875-6.8125 2.6875-4.4062 0-6.8906-2.75-2.4688-2.7656-2.4688-7.4375zm4.7344 0q0 6.4688 4.625 6.4688 2.0938 0 3.3594-1.6406 1.2812-1.6562 1.2812-4.8281 0-6.3438-4.6407-6.3438-2.1094 0-3.375 1.6719-1.25 1.6562-1.25 4.6719zm41.114 9.8281h-4.6562q-1.4844-8.2812-1.5625-9.2344-0.0781-0.96875-0.0781-1.3438h-0.1875q-0.39063 1.2812-0.67188 1.8438l-4.5938 9.0938h-1.6094l-3.3906-6.6406q-1.3438-2.6719-1.5625-3.25-0.21875-0.57812-0.34375-1.0469h-0.1875q0 1.2344-0.34375 3.2656l-1.2188 7.3125h-4.4531l3.7031-19.906h1.75l7.0938 13.922 6.9688-13.922h1.6719zm12.337 3.1406q-0.71875 1.9375-3.0781 3.2188-2.3438 1.2969-5.625 1.2969v-4.0312q5.2656 0 5.2656-2.6562 0-1.7344-1.4531-5.3438l-6.125-15.141h4.7344l5.2969 13.469 4.8125-13.469h4.7188z" stroke-width="3.9" style="paint-order:markers stroke fill"/>
  </g>
 </g>
</svg>
